<svg xmlns="http://www.w3.org/2000/svg" fill="none" viewBox="0 0 261 261">
    <path d="M226.59,112.1c-37.45-22.62-61.93,8.61-96.72-40.58-13.63,18.17-29.39,34.72-46.84,49.25,17.83.5,35.17-6.82,46.84-20.34h0c29.49,33.81,59.19,9.6,90.77,29.44-36.85,22.44-68.34,53.93-90.77,90.77-12.97-22.75-31.77-46.24-60.52-45.26,25.48,23.43,46.1,51.99,60.52,84.35,25.89-58.1,71.77-103.97,129.87-129.87-11.55-5.15-22.62-11.1-33.14-17.77h0ZM33.14,147.63c37.45,22.62,61.93-8.61,96.72,40.58,13.63-18.17,29.39-34.72,46.84-49.25-17.83-.5-35.17,6.82-46.84,20.34h0c-29.49-33.81-59.19-9.6-90.77-29.44,36.85-22.44,68.34-53.93,90.77-90.77,12.97,22.75,31.77,46.24,60.52,45.26-25.47-23.44-46.1-52-60.52-84.35C103.97,58.1,58.11,103.97,0,129.87c11.55,5.15,22.62,11.1,33.14,17.77Z"/>
    <style>
        path { fill: #000; }
        justify-content: center;
        align-content: center;
        @media (prefers-color-scheme: dark) {
            path { fill: #FFF; }
        }
    </style>
</svg>
